M48
METRIC,LZ,000.000
;FILE_FORMAT=3:3
;TYPE=PLATED
;Layer: PTH_Through
;EasyEDA v6.5.23, 2023-04-28 13:39:02
;7703e67730494ffebf129c6139567d94,10
;Gerber Generator version 0.2
;Holesize 1 = 0.889 mm
T01C0.889
;Holesize 2 = 0.900 mm
T02C0.900
;Holesize 3 = 0.915 mm
T03C0.915
;Holesize 4 = 1.000 mm
T04C1.000
;Holesize 5 = 1.021 mm
T05C1.021
%
G05
G90
T01
X022860Y-005080
X025400Y-005080
T02
X032766Y-080518
X032766Y-077978
X032766Y-075438
X032766Y-072898
X032766Y-070358
X032766Y-067818
X032766Y-065278
X032766Y-062738
X032766Y-060198
X032766Y-057658
X032766Y-055118
X032766Y-052578
X032766Y-050038
X032766Y-047498
X032766Y-044958
X032766Y-042418
X032766Y-039878
X032766Y-037338
X032766Y-034798
X032766Y-032258
X017526Y-080518
X017526Y-077978
X017526Y-075438
X017526Y-072898
X017526Y-070358
X017526Y-067818
X017526Y-065278
X017526Y-062738
X017526Y-060198
X017526Y-057658
X017526Y-055118
X017526Y-052578
X017526Y-050038
X017526Y-047498
X017526Y-044958
X017526Y-042418
X017526Y-039878
X017526Y-037338
X017526Y-034798
X017526Y-032258
T03
X040640Y-025400
X043180Y-025400
X045720Y-025400
X048260Y-025400
X050927Y-025400
X053467Y-025400
X041910Y-068580
X041910Y-071120
X041910Y-073660
X059690Y-068580
X059690Y-071120
X059690Y-073660
X040640Y-035560
X040640Y-038100
X040640Y-040640
X040640Y-043180
X040640Y-045720
X040640Y-048260
X040640Y-050800
X040640Y-053340
X027940Y-005080
T04
X031115Y-022860
X031115Y-020320
X031115Y-017780
X031115Y-015240
X031115Y-012700
T05
X005080Y-076200
X005080Y-078740
X005080Y-081280
X005080Y-063500
X005080Y-066040
X005080Y-068580
X005080Y-012700
X005080Y-015240
X005080Y-017780
X005080Y-025400
X005080Y-027940
X005080Y-030480
X005080Y-038100
X005080Y-040640
X005080Y-043180
X005080Y-050800
X005080Y-053340
X005080Y-055880
M30
